<svg width="196" height="31" viewBox="0 0 196 31" fill="none" xmlns="http://www.w3.org/2000/svg">
<path d="M98.6298 9.0459H97.8664V30.8025H98.6298H102.065H114.661L116.188 26.6038H102.065V22.0235H110.081V17.8249H102.065V13.2445H116.188V9.0459H102.065H98.6298Z" fill="white"/>
<path d="M49.9256 25.4588L51.8723 21.2601H57.0633L53.5517 13.9316L45.5361 30.8025H40.8795L51.2616 9.0459H51.2234H55.8801L66.224 30.8025H61.6055L59.0481 25.4588H49.9256Z" fill="white"/>
<path d="M129.7 25.4588L131.646 21.2601H136.837L133.326 13.9316L125.31 30.8025H120.654L131.036 9.0459H130.997H135.654L145.998 30.8025H141.38L138.822 25.4588H129.7Z" fill="white"/>
<path d="M86.9881 30.8025H92.1792L82.2551 18.6264L91.4921 9.42759H85.7667L76.1098 19.0845V9.0459H71.9112V30.8025H76.1098V24.8099L79.3924 21.4891L86.9881 30.8025Z" fill="white"/>
<path d="M162.716 9.0459H151.647V13.2445H162.678C164.892 13.2445 166.686 15.0385 166.686 17.2523C166.686 19.4662 164.892 21.2601 162.678 21.2601H155.846V15.153H151.647V30.8025H155.846V25.4206H162.716C167.22 25.3824 170.846 21.7563 170.846 17.2142C170.885 12.7102 167.259 9.0459 162.716 9.0459Z" fill="white"/>
<path d="M196 17.2142C196 12.7483 192.412 9.12224 187.984 9.0459H176.801V13.2445H187.832C190.046 13.2445 191.84 15.0385 191.84 17.2523C191.84 19.4662 190.046 21.2601 187.832 21.2601H180.999V15.153H176.801V30.8025H180.999V25.4206H187.984C192.412 25.3061 196 21.68 196 17.2142Z" fill="white"/>
<path d="M26.8331 30.7646V30.8027H31.4516L31.4134 30.7646L42.5589 5.80175L44.6201 6.75599L42.9406 0L36.6808 3.05355L38.7801 4.00779L29.1233 25.5353L21.8711 9.04615H17.2908L10.0004 25.5353L4.65667 13.3593L0 13.3211L7.71022 30.7646V30.8027H12.3287L12.2906 30.7646L19.5809 14.2372L26.8331 30.7646Z" fill="white"/>
</svg>
