<svg width="196" height="31" viewBox="0 0 196 31" fill="none" xmlns="http://www.w3.org/2000/svg">
<path d="M98.6298 9.04614H97.8664V30.8027H98.6298H102.065H114.661L116.188 26.6041H102.065V22.0237H110.081V17.8251H102.065V13.2448H116.188V9.04614H102.065H98.6298Z" fill="black"/>
<path d="M49.9256 25.459L51.8723 21.2604H57.0633L53.5517 13.9318L45.5361 30.8027H40.8795L51.2616 9.04614H51.2234H55.8801L66.224 30.8027H61.6055L59.0481 25.459H49.9256Z" fill="black"/>
<path d="M129.7 25.459L131.646 21.2604H136.837L133.326 13.9318L125.31 30.8027H120.654L131.036 9.04614H130.997H135.654L145.998 30.8027H141.38L138.822 25.459H129.7Z" fill="black"/>
<path d="M86.9881 30.8027H92.1792L82.2551 18.6267L91.4921 9.42784H85.7667L76.1098 19.0847V9.04614H71.9112V30.8027H76.1098V24.8101L79.3924 21.4894L86.9881 30.8027Z" fill="black"/>
<path d="M162.716 9.04614H151.647V13.2448H162.678C164.892 13.2448 166.686 15.0387 166.686 17.2526C166.686 19.4664 164.892 21.2604 162.678 21.2604H155.846V15.1533H151.647V30.8027H155.846V25.4208H162.716C167.22 25.3827 170.846 21.7566 170.846 17.2144C170.885 12.7104 167.259 9.04614 162.716 9.04614Z" fill="black"/>
<path d="M196 17.2144C196 12.7486 192.412 9.12248 187.984 9.04614H176.801V13.2448H187.832C190.046 13.2448 191.84 15.0387 191.84 17.2526C191.84 19.4664 190.046 21.2604 187.832 21.2604H180.999V15.1533H176.801V30.8027H180.999V25.4208H187.984C192.412 25.3063 196 21.6802 196 17.2144Z" fill="black"/>
<path d="M26.8331 30.7646V30.8027H31.4516L31.4134 30.7646L42.5589 5.80175L44.6201 6.75599L42.9406 0L36.6808 3.05355L38.7801 4.00779L29.1233 25.5353L21.8711 9.04615H17.2908L10.0004 25.5353L4.65667 13.3593L0 13.3211L7.71022 30.7646V30.8027H12.3287L12.2906 30.7646L19.5809 14.2372L26.8331 30.7646Z" fill="black"/>
</svg>
